# xmcd
#
# Track frame offsets: 
#        150
#        26828
#        43521
#        75213
#        100682
#        133412
#        164749
#        191781
#        223884
#        252734
#        286784
#
# Disc length: 4262 seconds
#
# Revision: 2
# Processed by: cddbd v1.5.2PL0 Copyright (c) Steve Scherf et al.
# Submitted via: ExactAudioCopy v1.0b3
#
DISCID=a410a40b
DTITLE=The Chemical Brothers - The Remixes Vol. 06 
DYEAR=2005
DGENRE=Electronic
TTITLE0=The Prodigy - Voodoo People (Dust Brothers Remix)
TTITLE1=The Charlatans - Toothache (Chemical Risk Mix)
TTITLE2=Bug Powder Dust (feat. Justin Warfield) (Dust Brothers Remix) 
TTITLE2=/ Bomb The Bass
TTITLE3=Primal Scream - Jailbird (Dust Brothers Remix)
TTITLE4=Kylie Minogue - Slow (Chemical Brothers Mix)
TTITLE5=The Charlatans - Patrol (Chemical Brothers Mix)
TTITLE6=Method Man - Bring The Pain (Chemical Vocal)
TTITLE7=Primal Scream - Swastika Eyes (Chemical Brothers Mix)
TTITLE8=Mercury Rev - Delta Sun Bottleneck Stomp (Chemical Brothers Re
TTITLE8=mix)
TTITLE9=Sandals - Feet (Dust Brothers Mix)
TTITLE10=Justin Warfield - Pick It Up Y'All (Dust Brothers Dub)
EXTD=
EXTT0=
EXTT1=
EXTT2=
EXTT3=
EXTT4=
EXTT5=
EXTT6=
EXTT7=
EXTT8=
EXTT9=
EXTT10=
PLAYORDER=
